<svg width="49" height="49" viewBox="0 0 49 49" fill="none" xmlns="http://www.w3.org/2000/svg">
<path d="M43.806 24.4L38.206 23.1L37.206 22.7L11.506 22.9V35.3L43.806 35.4V24.4Z" fill="white"/>
<path d="M33.3061 34.2C33.4669 33.7741 33.5237 33.3159 33.4715 32.8636C33.4193 32.4114 33.2597 31.9781 33.0061 31.6C32.7455 31.2876 32.4259 31.0297 32.0656 30.8409C31.7052 30.6522 31.3112 30.5364 30.9061 30.5L13.5061 30.3C13.4061 30.3 13.3061 30.2 13.2061 30.2C13.1828 30.1826 13.1639 30.1599 13.1509 30.1339C13.1378 30.1079 13.1311 30.0791 13.1311 30.05C13.1311 30.0209 13.1378 29.9922 13.1509 29.9662C13.1639 29.9401 13.1828 29.9175 13.2061 29.9C13.3061 29.7 13.4061 29.6 13.6061 29.6L31.1061 29.4C32.2171 29.2767 33.2752 28.8597 34.1715 28.1918C35.0679 27.524 35.7701 26.6293 36.2061 25.6L37.2061 23C37.2061 22.9 37.3061 22.8 37.2061 22.7C36.6624 20.2785 35.3431 18.1005 33.4486 16.4972C31.5541 14.8939 29.1881 13.9529 26.7099 13.8171C24.2318 13.6813 21.7771 14.3582 19.7187 15.7449C17.6604 17.1316 16.1111 19.1524 15.3061 21.5C14.261 20.7537 12.9863 20.3996 11.7061 20.5C10.5311 20.631 9.43571 21.1578 8.59976 21.9937C7.76381 22.8297 7.23707 23.9251 7.10606 25.1C7.03947 25.7014 7.07327 26.3097 7.20606 26.9C5.305 26.9526 3.49945 27.7448 2.17349 29.1081C0.847531 30.4714 0.105795 32.2982 0.10606 34.2C0.0896495 34.5695 0.123286 34.9396 0.206059 35.3C0.21065 35.3781 0.243734 35.4518 0.29903 35.5071C0.354327 35.5624 0.427995 35.5954 0.506062 35.6H32.6061C32.8061 35.6 33.0061 35.5 33.0061 35.3L33.3061 34.2Z" fill="#F48120"/>
<path d="M38.806 23H38.306C38.206 23 38.106 23.1 38.006 23.2L37.306 25.6C37.1451 26.0259 37.0884 26.4841 37.1406 26.9364C37.1928 27.3887 37.3524 27.822 37.606 28.2C37.8666 28.5124 38.1862 28.7704 38.5465 28.9591C38.9069 29.1479 39.3009 29.2637 39.706 29.3L43.406 29.5C43.506 29.5 43.606 29.6 43.706 29.6C43.7293 29.6175 43.7482 29.6401 43.7612 29.6662C43.7743 29.6922 43.781 29.7209 43.781 29.75C43.781 29.7791 43.7743 29.8078 43.7612 29.8339C43.7482 29.8599 43.7293 29.8826 43.706 29.9C43.606 30.1 43.506 30.2 43.306 30.2L39.506 30.4C38.395 30.5233 37.3369 30.9404 36.4406 31.6082C35.5442 32.2761 34.842 33.1707 34.406 34.2L34.206 35.1C34.106 35.2 34.206 35.4 34.406 35.4H47.606C47.6468 35.4059 47.6883 35.4021 47.7274 35.3891C47.7664 35.3761 47.8019 35.3541 47.831 35.325C47.8601 35.2959 47.8821 35.2604 47.8951 35.2214C47.9081 35.1823 47.9119 35.1408 47.906 35.1C48.1441 34.2527 48.2784 33.3797 48.306 32.5C48.2902 29.9854 47.2842 27.5782 45.506 25.8C43.7279 24.0219 41.3207 23.0159 38.806 23Z" fill="#FAAD3F"/>
</svg>
