<svg width="68" height="68" viewBox="0 0 68 68" fill="none" xmlns="http://www.w3.org/2000/svg">
<path d="M33.8 0C15.1 0 0 15.1 0 33.8C0 52.5 15.1 67.7 33.8 67.7C52.5 67.7 67.6 52.6 67.6 33.9C67.6 15.2 52.5 0 33.8 0Z" fill="#ED7778"/>
<path d="M24.9 19.8C22.3 18.4 19.4 17.3 16.4 16.6C15.8 17.9 15.5 19.2 15.5 20.7C15.5 22.9 16.2 24.9 17.4 26.5C19.3 23.7 21.8 21.3 24.9 19.8Z" fill="white"/>
<path d="M50.2 26.5C51.4 24.9 52.1 22.9 52.1 20.7C52.1 19.2 51.8 17.8 51.2 16.6C48.2 17.2 45.3 18.3 42.7 19.8C45.7 21.3 48.3 23.7 50.2 26.5Z" fill="white"/>
<path d="M38.3 31.1C37.7 31.1 37.2 31.6 37.2 32.2C37.2 32.4 37.3 32.6 37.4 32.8C37.8 33.4 38.4 33.8 39.1 34C39.3 33.6 39.4 33.1 39.4 32.6C39.4 32.4 39.4 32.3 39.4 32.1C39.3 31.5 38.9 31.1 38.3 31.1Z" fill="white"/>
<path d="M33.1 18.9C23.2 19.3 15.5 27.7 15.5 37.6V47.9C15.5 49.7 17 51.2 18.8 51.2C20.6 51.2 22.1 49.7 22.1 47.9V45.2H45.3V47.9C45.3 49.7 46.8 51.2 48.6 51.2C50.4 51.2 51.9 49.7 51.9 47.9V37.1C52 26.8 43.5 18.5 33.1 18.9ZM43.5 33.3C42.9 34.3 42 35 40.9 35.4C40.2 36.8 38.7 37.8 37 37.8C36.8 37.8 36.6 37.8 36.5 37.8C35.9 37.8 35.4 37.3 35.4 36.7C35.4 36.1 35.9 35.6 36.5 35.6C37 35.6 37.5 35.4 37.9 35.2C37.3 34.9 36.7 34.5 36.3 33.9C35.9 33.4 35.7 32.9 35.7 32.2C35.7 30.8 36.9 29.6 38.3 29.6C39.2 29.6 39.9 30 40.4 30.7C41 31.5 41.4 32.4 41.4 33.5C41.4 33.6 41.4 33.7 41.4 33.9C41.9 33.7 42.3 33.3 42.6 32.9C42.8 32.6 43.1 32.6 43.4 32.7C43.6 32.6 43.7 33 43.5 33.3Z" fill="white"/>
</svg>
